<svg height="512pt" viewBox="0 -99 512 512" width="512pt" xmlns="http://www.w3.org/2000/svg"><path d="m38.632812 211.472656h146.285157v52.734375h-146.285157zm0 0" fill="#e62753"/><path d="m273.511719 64.175781v55.597657c0 15.921874-12.914063 28.828124-28.847657 28.828124h-43.265624v-30.886718h39.144531c1.140625 0 2.0625-.921875 2.0625-2.058594v-47.363281c0-1.136719-.921875-2.058594-2.0625-2.058594h-39.144531v-30.886719h43.265624c15.9375 0 28.847657 12.910156 28.847657 28.828125zm0 0" fill="#ff2c5c"/><path d="m244.664062 35.347656h-30.902343c15.933593 0 28.84375 12.910156 28.84375 28.828125v55.597657c0 15.921874-12.914063 28.828124-28.84375 28.828124h30.902343c15.933594 0 28.847657-12.90625 28.847657-28.828124v-55.597657c0-15.917969-12.910157-28.828125-28.847657-28.828125zm0 0" fill="#e62753"/><path d="m189.042969 222.394531h-154.535157c-6.824218 0-12.359374-5.535156-12.359374-12.359375v-206.035156c0-2.210938 1.792968-4 4-4h171.253906c2.207031 0 4 1.789062 4 4v206.035156c0 6.824219-5.535156 12.359375-12.359375 12.359375zm0 0" fill="#ff2c5c"/><path d="m170.496094 0v210.039062c0 6.824219-5.535156 12.355469-12.363282 12.355469h30.90625c6.828126 0 12.363282-5.535156 12.363282-12.363281v-206.03125c0-2.210938-1.792969-4-4-4zm0 0" fill="#e62753"/><path d="m190.074219 159.050781s-51.363281 32.570313-54.457031 62.207031c-3.097657 29.632813 42.851562 54.90625 100.3125 36.246094 16.78125-5.453125-29.949219-67.207031-45.855469-98.453125zm0 0" fill="#f0ac7a"/><path d="m176.738281 168.523438c-6.839843 10.378906-11.980469 21.53125-12.914062 32.371093-2.6875 31.128907 29.820312 58.472657 75.25 53.585938 5.007812-13.925781-34.609375-67.160157-49-95.429688 0 0-5.664063 3.59375-13.335938 9.472657zm0 0" fill="#eb9f67"/><path d="m251.351562 115.5s-46.71875 9.226562-75.296874 38.933594c-2.132813 2.21875-2.789063 5.46875-1.621094 8.316406 6.855468 16.746094 32.269531 75.292969 61.496094 98.582031 0 0 21.132812 12.527344 41.519531-5.148437 3.28125-2.84375-12.628907-61.375-26.097657-140.683594zm0 0" fill="#f0ac7a"/><path d="m277.449219 256.183594c3.28125-2.84375-12.628907-61.375-26.097657-140.683594 0 0-14.265624 2.820312-31.855468 10.355469-2.5 2.128906-4.917969 4.382812-7.214844 6.773437-2.132812 2.21875-2.273438 5.308594-1.621094 8.316406 4.429688 20.425782 41.089844 125.515626 59.5625 120.300782 2.394532-1.316406 4.816406-2.972656 7.226563-5.0625zm0 0" fill="#eb9f67"/><path d="m439.367188 159.050781s51.363281 32.570313 54.457031 62.207031c3.097656 29.632813-43.996094 54.90625-101.457031 36.246094-16.785157-5.453125 31.09375-67.207031 47-98.453125zm0 0" fill="#f0ac7a"/><path d="m493.824219 221.257812c-3.09375-29.636718-54.457031-62.207031-54.457031-62.207031-2.433594 4.785157-5.621094 10.285157-9.210938 16.191407 14.429688 12.1875 31.042969 29.554687 32.765625 46.015624 2.03125 19.472657-17.605469 37.0625-47.617187 41.539063 46.488281 6.351563 81.191406-15.96875 78.519531-41.539063zm0 0" fill="#eb9f67"/><path d="m378.089844 115.5s46.722656 9.226562 75.300781 38.933594c2.132813 2.21875 2.785156 5.46875 1.617187 8.316406-6.855468 16.746094-32.269531 75.292969-61.492187 98.582031 0 0-21.136719 12.527344-41.523437-5.148437-3.277344-2.84375 12.628906-61.375 26.097656-140.683594zm0 0" fill="#f0ac7a"/><path d="m453.390625 154.433594c-28.578125-29.707032-75.300781-38.933594-75.300781-38.933594-.53125 3.128906-1.066406 6.222656-1.601563 9.28125 14.796875 6.078125 32.4375 15.558594 45.996094 29.652344 2.132813 2.21875 2.785156 5.46875 1.621094 8.316406-6.855469 16.746094-32.273438 75.292969-61.496094 98.582031 0 0-.578125.339844-1.617187.824219 17.160156 8.265625 32.523437-.824219 32.523437-.824219 29.222656-23.285156 54.640625-81.835937 61.496094-98.582031 1.164062-2.847656.511719-6.097656-1.621094-8.316406zm0 0" fill="#eb9f67"/><path d="m314.722656 93.695312c-36.730468.070313-59.792968 8.667969-69.242187 13.09375-2.976563 1.394532-4.742188 4.5-4.410157 7.773438 2.476563 24.261719 13.601563 125.664062 27.644532 137.132812 15.964844 13.035157 76.046875 13.035157 92.011718 0 14.042969-11.46875 25.167969-112.871093 27.640626-137.132812.335937-3.273438-1.429688-6.378906-4.40625-7.773438-9.449219-4.425781-32.511719-13.023437-69.238282-13.09375zm0 0" fill="#f0ac7a"/><path d="m383.964844 106.789062c-9.453125-4.425781-32.515625-13.023437-69.242188-13.09375-5.457031.007813-10.601562.210938-15.453125.558594 27.816407 1.976563 45.742188 8.765625 53.789063 12.535156 2.972656 1.394532 4.738281 4.503907 4.40625 7.773438-2.476563 24.261719-13.597656 125.664062-27.640625 137.132812-5.789063 4.726563-17.375 7.738282-30.554688 9.039063 23.175781 2.285156 51.28125-.726563 61.457031-9.039063 14.042969-11.46875 25.167969-112.871093 27.644532-137.132812.332031-3.273438-1.433594-6.378906-4.40625-7.773438zm0 0" fill="#eb9f67"/><path d="m463.070312 313h-414.140624c-10.238282 0-18.539063-8.300781-18.539063-18.539062v-24.851563h451.21875v24.851563c0 10.238281-8.300781 18.539062-18.539063 18.539062zm0 0" fill="#d5dfe8"/><path d="m496.554688 284.171875h-481.109376c-8.53125 0-15.445312-6.914063-15.445312-15.445313s6.914062-15.445312 15.445312-15.445312h481.109376c8.53125 0 15.445312 6.917969 15.445312 15.445312 0 8.53125-6.914062 15.445313-15.445312 15.445313zm0 0" fill="#cad2db"/><path d="m496.546875 253.28125h-30.90625c8.535156 0 15.453125 6.917969 15.453125 15.445312 0 8.53125-6.917969 15.445313-15.453125 15.445313h30.90625c8.535156 0 15.453125-6.914063 15.453125-15.445313s-6.917969-15.445312-15.453125-15.445312zm0 0" fill="#bfc7d1"/></svg>